<svg width="70" height="15" viewBox="0 0 70 15" fill="none" xmlns="http://www.w3.org/2000/svg">
<path d="M6.05544 3.21739C6.36673 2.32183 7.63327 2.32183 7.94456 3.21739L8.41733 4.57747C8.55465 4.97254 8.92334 5.24041 9.34152 5.24893L10.7811 5.27827C11.729 5.29758 12.1204 6.50213 11.3649 7.07493L10.2175 7.94485C9.88417 8.19753 9.74335 8.63096 9.86446 9.03129L10.2814 10.4095C10.556 11.317 9.53133 12.0615 8.75309 11.5199L7.57118 10.6975C7.22786 10.4586 6.77214 10.4586 6.42882 10.6975L5.24691 11.5199C4.46867 12.0615 3.44402 11.317 3.71858 10.4095L4.13554 9.03129C4.25665 8.63096 4.11583 8.19753 3.78253 7.94485L2.63511 7.07493C1.87958 6.50213 2.27096 5.29758 3.21888 5.27827L4.65848 5.24893C5.07665 5.24041 5.44535 4.97254 5.58267 4.57747L6.05544 3.21739Z" fill="#333333"/>
<path d="M20.0554 3.21739C20.3667 2.32183 21.6333 2.32183 21.9446 3.21739L22.4173 4.57747C22.5547 4.97254 22.9233 5.24041 23.3415 5.24893L24.7811 5.27827C25.729 5.29758 26.1204 6.50213 25.3649 7.07493L24.2175 7.94485C23.8842 8.19753 23.7433 8.63096 23.8645 9.03129L24.2814 10.4095C24.556 11.317 23.5313 12.0615 22.7531 11.5199L21.5712 10.6975C21.2279 10.4586 20.7721 10.4586 20.4288 10.6975L19.2469 11.5199C18.4687 12.0615 17.444 11.317 17.7186 10.4095L18.1355 9.03129C18.2567 8.63096 18.1158 8.19753 17.7825 7.94485L16.6351 7.07493C15.8796 6.50213 16.271 5.29758 17.2189 5.27827L18.6585 5.24893C19.0767 5.24041 19.4453 4.97254 19.5827 4.57747L20.0554 3.21739Z" fill="#333333"/>
<path d="M34.0554 3.21739C34.3667 2.32183 35.6333 2.32183 35.9446 3.21739L36.4173 4.57747C36.5547 4.97254 36.9233 5.24041 37.3415 5.24893L38.7811 5.27827C39.729 5.29758 40.1204 6.50213 39.3649 7.07493L38.2175 7.94485C37.8842 8.19753 37.7433 8.63096 37.8645 9.03129L38.2814 10.4095C38.556 11.317 37.5313 12.0615 36.7531 11.5199L35.5712 10.6975C35.2279 10.4586 34.7721 10.4586 34.4288 10.6975L33.2469 11.5199C32.4687 12.0615 31.444 11.317 31.7186 10.4095L32.1355 9.03129C32.2567 8.63096 32.1158 8.19753 31.7825 7.94485L30.6351 7.07493C29.8796 6.50213 30.271 5.29758 31.2189 5.27827L32.6585 5.24893C33.0767 5.24041 33.4453 4.97254 33.5827 4.57747L34.0554 3.21739Z" fill="#333333"/>
<path d="M48.0554 3.21739C48.3667 2.32183 49.6333 2.32183 49.9446 3.21739L50.4173 4.57747C50.5547 4.97254 50.9233 5.24041 51.3415 5.24893L52.7811 5.27827C53.729 5.29758 54.1204 6.50213 53.3649 7.07493L52.2175 7.94485C51.8842 8.19753 51.7433 8.63096 51.8645 9.03129L52.2814 10.4095C52.556 11.317 51.5313 12.0615 50.7531 11.5199L49.5712 10.6975C49.2279 10.4586 48.7721 10.4586 48.4288 10.6975L47.2469 11.5199C46.4687 12.0615 45.444 11.317 45.7186 10.4095L46.1355 9.03129C46.2567 8.63096 46.1158 8.19753 45.7825 7.94485L44.6351 7.07493C43.8796 6.50213 44.271 5.29758 45.2189 5.27827L46.6585 5.24893C47.0767 5.24041 47.4453 4.97254 47.5827 4.57747L48.0554 3.21739Z" fill="#333333"/>
<path d="M62.0554 3.21739C62.3667 2.32183 63.6333 2.32183 63.9446 3.21739L64.4173 4.57747C64.5547 4.97254 64.9233 5.24041 65.3415 5.24893L66.7811 5.27827C67.729 5.29758 68.1204 6.50213 67.3649 7.07493L66.2175 7.94485C65.8842 8.19753 65.7433 8.63096 65.8645 9.03129L66.2814 10.4095C66.556 11.317 65.5313 12.0615 64.7531 11.5199L63.5712 10.6975C63.2279 10.4586 62.7721 10.4586 62.4288 10.6975L61.2469 11.5199C60.4687 12.0615 59.444 11.317 59.7186 10.4095L60.1355 9.03129C60.2567 8.63096 60.1158 8.19753 59.7825 7.94485L58.6351 7.07493C57.8796 6.50213 58.271 5.29758 59.2189 5.27827L60.6585 5.24893C61.0767 5.24041 61.4453 4.97254 61.5827 4.57747L62.0554 3.21739Z" fill="#E0E0E0"/>
</svg>
